<?xml version="1.0" encoding="UTF-8"?>
<!DOCTYPE svg PUBLIC "-//W3C//DTD SVG 1.1//EN" "http://www.w3.org/Graphics/SVG/1.1/DTD/svg11.dtd">
<svg xmlns="http://www.w3.org/2000/svg" version="1.1" width="760px" height="322px" style="shape-rendering:geometricPrecision; text-rendering:geometricPrecision; image-rendering:optimizeQuality; fill-rule:evenodd; clip-rule:evenodd" xmlns:xlink="http://www.w3.org/1999/xlink">
<g><path style="opacity:1" fill="#fefefe" d="M -0.5,-0.5 C 252.833,-0.5 506.167,-0.5 759.5,-0.5C 759.5,106.833 759.5,214.167 759.5,321.5C 506.167,321.5 252.833,321.5 -0.5,321.5C -0.5,254.167 -0.5,186.833 -0.5,119.5C 11.2998,131.468 22.9665,143.635 34.5,156C 36.0779,157.094 37.7446,157.928 39.5,158.5C 41.8577,160.129 44.5243,161.295 47.5,162C 74.8313,162.5 102.165,162.667 129.5,162.5C 133.37,163.353 136.536,165.353 139,168.5C 139.79,165.366 139.457,162.366 138,159.5C 126.844,147.378 115.344,135.545 103.5,124C 99.0745,121.356 94.4079,119.189 89.5,117.5C 60.8391,116.667 32.1725,116.167 3.5,116C 2.29493,114.624 0.961599,113.458 -0.5,112.5C -0.5,74.8333 -0.5,37.1667 -0.5,-0.5 Z"/></g>
<g><path style="opacity:1" fill="#50c9ed" d="M 47.5,62.5 C 61.1707,62.3334 74.8374,62.5001 88.5,63C 73.6329,78.6992 58.6329,94.1992 43.5,109.5C 32.3407,108.669 21.0074,108.169 9.5,108C 6.68221,105.636 4.68221,102.803 3.5,99.5C 12.9309,88.5664 22.9309,78.0664 33.5,68C 37.6432,64.7591 42.3099,62.9258 47.5,62.5 Z"/></g>
<g><path style="opacity:1" fill="#a894fa" d="M 96.5,65.5 C 96.5,65.8333 96.5,66.1667 96.5,66.5C 93.2153,66.2104 90.2153,66.877 87.5,68.5C 87.9528,67.5416 88.6195,66.7083 89.5,66C 91.8098,65.5034 94.1432,65.3367 96.5,65.5 Z"/></g>
<g><path style="opacity:1" fill="#6a4af6" d="M 96.5,66.5 C 100.5,69.8333 104.167,73.5 107.5,77.5C 108.419,80.0892 110.086,82.0892 112.5,83.5C 116.006,85.1444 117.506,87.8111 117,91.5C 114.328,92.282 111.828,93.282 109.5,94.5C 103.834,95.3904 98.5005,97.057 93.5,99.5C 84.1738,101.39 75.1738,104.056 66.5,107.5C 61.8354,108.057 57.5021,109.39 53.5,111.5C 52.8333,111.5 52.1667,111.5 51.5,111.5C 50.448,111.649 49.448,111.483 48.5,111C 49.2524,110.329 49.5858,109.496 49.5,108.5C 61.8292,94.8377 74.4958,81.5044 87.5,68.5C 90.2153,66.877 93.2153,66.2104 96.5,66.5 Z"/></g>
<g><path style="opacity:1" fill="#9e87f9" d="M 107.5,77.5 C 109.914,78.9108 111.581,80.9108 112.5,83.5C 110.086,82.0892 108.419,80.0892 107.5,77.5 Z"/></g>
<g><path style="opacity:1" fill="#e8f0fd" d="M 47.5,62.5 C 61.9905,61.504 76.6572,61.1707 91.5,61.5C 91.5,62.5 91.5,63.5 91.5,64.5C 93.4147,64.2155 95.0813,64.5489 96.5,65.5C 94.1432,65.3367 91.8098,65.5034 89.5,66C 88.6195,66.7083 87.9528,67.5416 87.5,68.5C 74.4958,81.5044 61.8292,94.8377 49.5,108.5C 48.1819,109.757 46.8485,111.091 45.5,112.5C 45.6236,113.107 45.9569,113.44 46.5,113.5C 46.44,114.043 46.1067,114.376 45.5,114.5C 44.8589,113.007 43.8589,112.007 42.5,111.5C 42.8333,110.833 43.1667,110.167 43.5,109.5C 58.6329,94.1992 73.6329,78.6992 88.5,63C 74.8374,62.5001 61.1707,62.3334 47.5,62.5 Z"/></g>
<g><path style="opacity:1" fill="#dbd2fc" d="M 109.5,94.5 C 104.5,96.943 99.1662,98.6096 93.5,99.5C 98.5005,97.057 103.834,95.3904 109.5,94.5 Z"/></g>
<g><path style="opacity:1" fill="#31b7d0" d="M 3.5,99.5 C 4.68221,102.803 6.68221,105.636 9.5,108C 21.0074,108.169 32.3407,108.669 43.5,109.5C 43.1667,110.167 42.8333,110.833 42.5,111.5C 41.5222,111.811 40.8555,112.478 40.5,113.5C 29.1813,114.666 17.848,114.832 6.5,114C 1.26848,111.367 -0.564858,107.201 1,101.5C 1.7083,100.619 2.54163,99.9528 3.5,99.5 Z"/></g>
<g><path style="opacity:1" fill="#dad1fd" d="M 66.5,107.5 C 62.4979,109.61 58.1646,110.943 53.5,111.5C 57.5021,109.39 61.8354,108.057 66.5,107.5 Z"/></g>
<g><path style="opacity:1" fill="#977ef8" d="M 49.5,108.5 C 49.5858,109.496 49.2524,110.329 48.5,111C 49.448,111.483 50.448,111.649 51.5,111.5C 50.0697,112.537 48.403,113.204 46.5,113.5C 45.9569,113.44 45.6236,113.107 45.5,112.5C 46.8485,111.091 48.1819,109.757 49.5,108.5 Z"/></g>
<g><path style="opacity:1" fill="#d459fa" d="M -0.5,112.5 C 0.961599,113.458 2.29493,114.624 3.5,116C 32.1725,116.167 60.8391,116.667 89.5,117.5C 94.4079,119.189 99.0745,121.356 103.5,124C 115.344,135.545 126.844,147.378 138,159.5C 139.457,162.366 139.79,165.366 139,168.5C 136.536,165.353 133.37,163.353 129.5,162.5C 102.67,161.668 75.6698,161.168 48.5,161C 45.6473,159.57 42.6473,158.737 39.5,158.5C 37.7446,157.928 36.0779,157.094 34.5,156C 22.9665,143.635 11.2998,131.468 -0.5,119.5C -0.5,117.167 -0.5,114.833 -0.5,112.5 Z"/></g>
<g><path style="opacity:1" fill="#aae4f5" d="M 636.5,129.5 C 636.5,125.833 636.5,122.167 636.5,118.5C 622.5,118.5 608.5,118.5 594.5,118.5C 594.5,122.833 594.5,127.167 594.5,131.5C 601.863,131.169 609.197,131.503 616.5,132.5C 616.376,133.107 616.043,133.44 615.5,133.5C 608.352,132.508 601.019,132.175 593.5,132.5C 593.5,127.5 593.5,122.5 593.5,117.5C 608.167,117.5 622.833,117.5 637.5,117.5C 637.817,121.702 637.483,125.702 636.5,129.5 Z"/></g>
<g><path style="opacity:1" fill="#55cbed" d="M 147.5,175.5 C 145.848,170.659 145.182,165.659 145.5,160.5C 150.5,160.5 155.5,160.5 160.5,160.5C 160.232,162.099 160.566,163.432 161.5,164.5C 162.067,166.03 162.733,167.53 163.5,169C 166.833,169.667 170.167,169.667 173.5,169C 177.867,164.498 177.201,160.832 171.5,158C 164.559,157.181 157.892,155.515 151.5,153C 144.958,146.463 142.791,138.629 145,129.5C 152.353,117.928 162.853,113.762 176.5,117C 189.23,120.284 194.563,128.451 192.5,141.5C 187.167,141.5 181.833,141.5 176.5,141.5C 177.201,135.041 174.368,131.374 168,130.5C 162.447,131.062 160.447,134.062 162,139.5C 162.903,140.701 164.069,141.535 165.5,142C 171.951,143.196 178.284,144.863 184.5,147C 193.021,152.229 195.855,159.729 193,169.5C 188.164,179.676 179.998,184.343 168.5,183.5C 163.005,183.579 157.671,182.746 152.5,181C 151.336,178.672 149.67,176.838 147.5,175.5 Z"/></g>
<g><path style="opacity:1" fill="#51caed" d="M 239.5,164.5 C 240.496,149.342 240.83,134.009 240.5,118.5C 245.5,118.5 250.5,118.5 255.5,118.5C 255.5,135.5 255.5,152.5 255.5,169.5C 253.383,176.448 248.716,180.948 241.5,183C 234.833,183.667 228.167,183.667 221.5,183C 213.72,181.306 209.22,176.473 208,168.5C 207.5,151.503 207.333,134.503 207.5,117.5C 212.833,117.5 218.167,117.5 223.5,117.5C 223.333,133.503 223.5,149.503 224,165.5C 225.135,168.859 227.468,170.192 231,169.5C 235.242,169.971 238.075,168.304 239.5,164.5 Z"/></g>
<g><path style="opacity:1" fill="#99e0f4" d="M 255.5,169.5 C 255.5,152.5 255.5,135.5 255.5,118.5C 250.5,118.5 245.5,118.5 240.5,118.5C 240.83,134.009 240.496,149.342 239.5,164.5C 239.5,148.833 239.5,133.167 239.5,117.5C 245.167,117.5 250.833,117.5 256.5,117.5C 256.83,135.008 256.497,152.341 255.5,169.5 Z"/></g>
<g><path style="opacity:1" fill="#a6e3f5" d="M 296.5,119.5 C 288.586,118.533 280.586,118.199 272.5,118.5C 272.5,139.833 272.5,161.167 272.5,182.5C 277.5,182.5 282.5,182.5 287.5,182.5C 287.333,171.162 287.5,159.828 288,148.5C 289.009,150.025 289.509,151.692 289.5,153.5C 288.506,163.319 288.173,173.319 288.5,183.5C 282.833,183.5 277.167,183.5 271.5,183.5C 271.5,161.5 271.5,139.5 271.5,117.5C 280.234,116.865 288.567,117.532 296.5,119.5 Z"/></g>
<g><path style="opacity:1" fill="#4fc9ed" d="M 296.5,119.5 C 298.724,129.963 301.557,140.297 305,150.5C 308.291,140.342 311.124,130.008 313.5,119.5C 321.414,118.533 329.414,118.199 337.5,118.5C 337.5,139.833 337.5,161.167 337.5,182.5C 332.5,182.5 327.5,182.5 322.5,182.5C 322.667,171.162 322.5,159.828 322,148.5C 320.812,149.563 320.312,150.897 320.5,152.5C 318.167,162.5 315.833,172.5 313.5,182.5C 307.833,182.5 302.167,182.5 296.5,182.5C 294.373,172.784 292.039,163.118 289.5,153.5C 289.509,151.692 289.009,150.025 288,148.5C 287.5,159.828 287.333,171.162 287.5,182.5C 282.5,182.5 277.5,182.5 272.5,182.5C 272.5,161.167 272.5,139.833 272.5,118.5C 280.586,118.199 288.586,118.533 296.5,119.5 Z"/></g>
<g><path style="opacity:1" fill="#a4e3f5" d="M 320.5,152.5 C 320.312,150.897 320.812,149.563 322,148.5C 322.5,159.828 322.667,171.162 322.5,182.5C 327.5,182.5 332.5,182.5 337.5,182.5C 337.5,161.167 337.5,139.833 337.5,118.5C 329.414,118.199 321.414,118.533 313.5,119.5C 321.433,117.532 329.766,116.865 338.5,117.5C 338.5,139.5 338.5,161.5 338.5,183.5C 332.833,183.5 327.167,183.5 321.5,183.5C 321.828,172.986 321.494,162.653 320.5,152.5 Z"/></g>
<g><path style="opacity:1" fill="#51caed" d="M 404.5,182.5 C 404.667,171.495 404.5,160.495 404,149.5C 403.495,151.518 402.995,153.518 402.5,155.5C 400.026,164.395 398.026,173.395 396.5,182.5C 390.5,182.5 384.5,182.5 378.5,182.5C 376.319,171.776 373.819,161.11 371,150.5C 370.5,161.161 370.333,171.828 370.5,182.5C 365.167,182.5 359.833,182.5 354.5,182.5C 354.5,160.833 354.5,139.167 354.5,117.5C 362.5,117.5 370.5,117.5 378.5,117.5C 381.329,128.814 384.162,140.148 387,151.5C 390.14,140.613 393.14,129.613 396,118.5C 404.081,117.518 412.248,117.184 420.5,117.5C 420.5,139.167 420.5,160.833 420.5,182.5C 415.167,182.5 409.833,182.5 404.5,182.5 Z"/></g>
<g><path style="opacity:1" fill="#54caed" d="M 448.5,117.5 C 456.087,117.186 463.587,117.519 471,118.5C 477.011,139.566 481.844,160.899 485.5,182.5C 479.833,182.5 474.167,182.5 468.5,182.5C 468.328,178.466 467.828,174.466 467,170.5C 462.55,169.2 458.05,169.2 453.5,170.5C 452.402,174.423 451.735,178.423 451.5,182.5C 445.833,182.5 440.167,182.5 434.5,182.5C 434.336,179.813 434.503,177.146 435,174.5C 439.661,155.522 444.161,136.522 448.5,117.5 Z"/></g>
<g><path style="opacity:1" fill="#53caed" d="M 499.5,117.5 C 510.888,117.117 522.221,117.617 533.5,119C 545.162,124.988 548.995,134.488 545,147.5C 543.168,152.173 540.334,156.173 536.5,159.5C 540.165,166.496 542.831,173.829 544.5,181.5C 538.872,182.495 533.206,182.829 527.5,182.5C 525.812,175.215 523.312,168.215 520,161.5C 518.644,160.62 517.144,160.286 515.5,160.5C 515.5,167.833 515.5,175.167 515.5,182.5C 510.167,182.5 504.833,182.5 499.5,182.5C 499.5,160.833 499.5,139.167 499.5,117.5 Z"/></g>
<g><path style="opacity:1" fill="#9de1f4" d="M 561.5,118.5 C 566.64,117.512 571.974,117.179 577.5,117.5C 577.5,139.5 577.5,161.5 577.5,183.5C 571.833,183.5 566.167,183.5 560.5,183.5C 560.169,161.66 560.503,139.994 561.5,118.5 Z"/></g>
<g><path style="opacity:1" fill="#4dc9ed" d="M 561.5,118.5 C 566.5,118.5 571.5,118.5 576.5,118.5C 576.5,139.833 576.5,161.167 576.5,182.5C 571.5,182.5 566.5,182.5 561.5,182.5C 561.5,161.167 561.5,139.833 561.5,118.5 Z"/></g>
<g><path style="opacity:1" fill="#52caed" d="M 636.5,129.5 C 628.514,141.974 621.181,154.807 614.5,168C 622.159,168.5 629.826,168.666 637.5,168.5C 637.5,173.167 637.5,177.833 637.5,182.5C 622.833,182.5 608.167,182.5 593.5,182.5C 593.294,178.102 593.627,173.768 594.5,169.5C 600.999,157.164 607.999,145.164 615.5,133.5C 616.043,133.44 616.376,133.107 616.5,132.5C 609.197,131.503 601.863,131.169 594.5,131.5C 594.5,127.167 594.5,122.833 594.5,118.5C 608.5,118.5 622.5,118.5 636.5,118.5C 636.5,122.167 636.5,125.833 636.5,129.5 Z"/></g>
<g><path style="opacity:1" fill="#b0e6f6" d="M 653.5,182.5 C 652.503,161.006 652.169,139.34 652.5,117.5C 666.5,117.5 680.5,117.5 694.5,117.5C 694.5,122.5 694.5,127.5 694.5,132.5C 686.5,132.5 678.5,132.5 670.5,132.5C 670.5,135.833 670.5,139.167 670.5,142.5C 677.167,142.5 683.833,142.5 690.5,142.5C 690.5,147.5 690.5,152.5 690.5,157.5C 683.833,157.5 677.167,157.5 670.5,157.5C 670.5,161.167 670.5,164.833 670.5,168.5C 678.5,168.5 686.5,168.5 694.5,168.5C 694.5,173.5 694.5,178.5 694.5,183.5C 680.656,183.829 666.99,183.496 653.5,182.5 Z"/></g>
<g><path style="opacity:1" fill="#4ec9ed" d="M 653.5,182.5 C 653.5,161.167 653.5,139.833 653.5,118.5C 666.833,118.5 680.167,118.5 693.5,118.5C 693.5,122.833 693.5,127.167 693.5,131.5C 685.5,131.5 677.5,131.5 669.5,131.5C 669.5,135.5 669.5,139.5 669.5,143.5C 676.167,143.5 682.833,143.5 689.5,143.5C 689.5,147.833 689.5,152.167 689.5,156.5C 682.833,156.5 676.167,156.5 669.5,156.5C 669.5,160.833 669.5,165.167 669.5,169.5C 677.5,169.5 685.5,169.5 693.5,169.5C 693.5,173.833 693.5,178.167 693.5,182.5C 680.167,182.5 666.833,182.5 653.5,182.5 Z"/></g>
<g><path style="opacity:1" fill="#a1e2f5" d="M 739.5,118.5 C 729.833,118.5 720.167,118.5 710.5,118.5C 710.5,139.833 710.5,161.167 710.5,182.5C 715.5,182.5 720.5,182.5 725.5,182.5C 725.5,175.167 725.5,167.833 725.5,160.5C 727.415,160.216 729.081,160.549 730.5,161.5C 729.167,161.5 727.833,161.5 726.5,161.5C 726.5,168.833 726.5,176.167 726.5,183.5C 720.833,183.5 715.167,183.5 709.5,183.5C 709.5,161.5 709.5,139.5 709.5,117.5C 719.681,117.173 729.681,117.506 739.5,118.5 Z"/></g>
<g><path style="opacity:1" fill="#50caed" d="M 739.5,118.5 C 746.821,119.081 751.987,122.748 755,129.5C 755.667,135.5 755.667,141.5 755,147.5C 753.497,152.347 750.664,156.181 746.5,159C 749.789,166.766 752.789,174.599 755.5,182.5C 749.5,182.5 743.5,182.5 737.5,182.5C 735.768,175.303 733.434,168.303 730.5,161.5C 729.081,160.549 727.415,160.216 725.5,160.5C 725.5,167.833 725.5,175.167 725.5,182.5C 720.5,182.5 715.5,182.5 710.5,182.5C 710.5,161.167 710.5,139.833 710.5,118.5C 720.167,118.5 729.833,118.5 739.5,118.5 Z"/></g>
<g><path style="opacity:1" fill="#f5fbfd" d="M 516.5,131.5 C 525.708,129.887 529.875,133.554 529,142.5C 525.349,146.205 520.849,147.539 515.5,146.5C 515.221,141.405 515.555,136.405 516.5,131.5 Z"/></g>
<g><path style="opacity:1" fill="#fafdfe" d="M 726.5,132.5 C 738.259,129.904 741.926,134.071 737.5,145C 733.974,146.337 730.308,146.837 726.5,146.5C 726.5,141.833 726.5,137.167 726.5,132.5 Z"/></g>
<g><path style="opacity:1" fill="#ecf9fd" d="M 459.5,139.5 C 461.947,144.438 462.947,149.772 462.5,155.5C 460.396,155.799 458.396,155.466 456.5,154.5C 457.138,149.418 458.138,144.418 459.5,139.5 Z"/></g>
<g><path style="opacity:1" fill="#b2e8f7" d="M 404.5,182.5 C 403.833,173.5 403.167,164.5 402.5,155.5C 402.995,153.518 403.495,151.518 404,149.5C 404.5,160.495 404.667,171.495 404.5,182.5 Z"/></g>
<g><path style="opacity:1" fill="#c4ecf8" d="M 161.5,164.5 C 160.566,163.432 160.232,162.099 160.5,160.5C 155.5,160.5 150.5,160.5 145.5,160.5C 145.182,165.659 145.848,170.659 147.5,175.5C 144.075,170.843 142.741,165.51 143.5,159.5C 149.5,159.5 155.5,159.5 161.5,159.5C 161.5,161.167 161.5,162.833 161.5,164.5 Z"/></g>
<g><path style="opacity:1" fill="#e7a2fc" d="M 39.5,158.5 C 42.6473,158.737 45.6473,159.57 48.5,161C 75.6698,161.168 102.67,161.668 129.5,162.5C 102.165,162.667 74.8313,162.5 47.5,162C 44.5243,161.295 41.8577,160.129 39.5,158.5 Z"/></g>
<g><path style="opacity:1" fill="#3bbad3" d="M 133.5,179.5 C 132.678,177.611 131.845,175.611 131,173.5C 129.933,172.809 128.766,172.309 127.5,172C 115.659,171.831 103.993,171.331 92.5,170.5C 93.9599,168.537 95.6266,166.704 97.5,165C 108.5,164.333 119.5,164.333 130.5,165C 135.685,167.209 137.851,171.042 137,176.5C 135.961,177.71 134.794,178.71 133.5,179.5 Z"/></g>
<g><path style="opacity:1" fill="#6949f6" d="M 88.5,170.5 C 75.367,183.801 62.367,197.301 49.5,211C 47.1922,212.936 44.5255,213.769 41.5,213.5C 35.2301,206.729 28.7301,200.062 22,193.5C 21.1502,191.99 20.3169,190.49 19.5,189C 19.5699,188.235 19.9033,187.735 20.5,187.5C 22.403,187.204 24.0697,186.537 25.5,185.5C 29.1621,185.277 32.4954,184.277 35.5,182.5C 39.1621,182.277 42.4954,181.277 45.5,179.5C 46.5676,178.566 47.901,178.232 49.5,178.5C 51.8984,178.741 53.8984,178.074 55.5,176.5C 55.8333,176.5 56.1667,176.5 56.5,176.5C 59.9164,176.472 62.9164,175.472 65.5,173.5C 65.8333,173.5 66.1667,173.5 66.5,173.5C 69.9164,173.472 72.9164,172.472 75.5,170.5C 80.6549,168.377 85.9882,167.21 91.5,167C 90.2899,168.039 89.2899,169.206 88.5,170.5 Z"/></g>
<g><path style="opacity:1" fill="#9c85f9" d="M 75.5,170.5 C 72.9164,172.472 69.9164,173.472 66.5,173.5C 69.145,171.69 72.145,170.69 75.5,170.5 Z"/></g>
<g><path style="opacity:1" fill="#50caed" d="M 92.5,170.5 C 103.993,171.331 115.659,171.831 127.5,172C 128.766,172.309 129.933,172.809 131,173.5C 131.845,175.611 132.678,177.611 133.5,179.5C 124.403,190.1 114.736,200.267 104.5,210C 99.727,213.553 94.3937,215.72 88.5,216.5C 75.4957,216.667 62.4957,216.5 49.5,216C 62.6711,201.33 76.0045,186.83 89.5,172.5C 90.5,171.833 91.5,171.167 92.5,170.5 Z"/></g>
<g><path style="opacity:1" fill="#9b83f8" d="M 65.5,173.5 C 62.9164,175.472 59.9164,176.472 56.5,176.5C 59.145,174.69 62.145,173.69 65.5,173.5 Z"/></g>
<g><path style="opacity:1" fill="#9f89f9" d="M 55.5,176.5 C 53.8984,178.074 51.8984,178.741 49.5,178.5C 51.1016,176.926 53.1016,176.259 55.5,176.5 Z"/></g>
<g><path style="opacity:1" fill="#aa96f9" d="M 45.5,179.5 C 42.4954,181.277 39.1621,182.277 35.5,182.5C 38.5046,180.723 41.8379,179.723 45.5,179.5 Z"/></g>
<g><path style="opacity:1" fill="#c4edf8" d="M 594.5,169.5 C 593.627,173.768 593.294,178.102 593.5,182.5C 608.167,182.5 622.833,182.5 637.5,182.5C 622.676,183.496 607.676,183.829 592.5,183.5C 592.334,179.154 592.501,174.821 593,170.5C 593.383,169.944 593.883,169.611 594.5,169.5 Z"/></g>
<g><path style="opacity:1" fill="#a996fa" d="M 35.5,182.5 C 32.4954,184.277 29.1621,185.277 25.5,185.5C 28.5046,183.723 31.8379,182.723 35.5,182.5 Z"/></g>
<g><path style="opacity:1" fill="#ab98fa" d="M 25.5,185.5 C 24.0697,186.537 22.403,187.204 20.5,187.5C 21.6354,185.787 23.302,185.12 25.5,185.5 Z"/></g>
<g><path style="opacity:1" fill="#e4eefc" d="M 88.5,170.5 C 88.3284,171.492 88.6618,172.158 89.5,172.5C 76.0045,186.83 62.6711,201.33 49.5,216C 62.4957,216.5 75.4957,216.667 88.5,216.5C 74.6766,217.496 60.6766,217.829 46.5,217.5C 46.5,216.5 46.5,215.5 46.5,214.5C 44.5853,214.784 42.9187,214.451 41.5,213.5C 44.5255,213.769 47.1922,212.936 49.5,211C 62.367,197.301 75.367,183.801 88.5,170.5 Z"/></g>
</svg>
